<svg width="204" height="204" viewBox="0 0 204 204" fill="none" xmlns="http://www.w3.org/2000/svg">    <path d="M105.286 36.7275V32.8044H105.221L105.155 32.8066L105.286 36.7275ZM63.69 59.0473L67.1989 60.8017L63.69 59.0473ZM56.8786 74.4633L60.5163 75.9323L60.5163 75.9322L56.8786 74.4633ZM25.1378 78.3234L21.245 77.8368L21.235 77.9171L21.2283 77.9976L25.1378 78.3234ZM54.5592 39.7711L52.453 36.4614L52.453 36.4614L54.5592 39.7711ZM165.143 47.8874L162.291 50.5811L162.292 50.5814L165.143 47.8874ZM166.987 49.8349L164.14 52.5338L164.141 52.5342L166.987 49.8349ZM192.536 114.847L188.614 114.743L192.536 114.847ZM28.1813 154.414L31.5923 152.475L31.5231 152.354L31.4455 152.237L28.1813 154.414ZM28.1813 147.312L24.6724 145.557L24.6724 145.557L28.1813 147.312ZM28.5977 146.454L25.0623 144.754L25.062 144.754L28.5977 146.454ZM78.908 92.5269L77.0725 89.0597H77.0725L78.908 92.5269ZM141 76.2621L141.049 72.3393L141.048 72.3393L141 76.2621ZM158.042 64.12L161.551 62.3655L158.042 64.12ZM105.155 32.8066C99.7297 32.9875 91.08 34.1675 82.5356 37.6916C73.9821 41.2195 65.2067 47.2417 60.1811 57.2928L67.1989 60.8017C71.1013 52.9971 78.0511 48.0285 85.5273 44.945C93.0125 41.8577 100.697 40.8057 105.417 40.6484L105.155 32.8066ZM60.1811 57.2928C57.0577 63.5396 54.9436 68.7776 53.2409 72.9945L60.5163 75.9322C62.214 71.728 64.2278 66.744 67.1989 60.8017L60.1811 57.2928ZM53.2409 72.9944C50.866 78.8758 49.5163 82.0555 47.6942 84.0061C46.2695 85.5312 44.2555 86.5748 39.3411 86.5748V94.4209C45.4895 94.4209 49.981 93.052 53.4278 89.3621C56.4772 86.0978 58.3648 81.2603 60.5163 75.9323L53.2409 72.9944ZM39.3411 86.5748C34.1963 86.5748 31.7748 84.907 30.5858 83.451C29.2725 81.8428 28.9463 79.8617 29.0473 78.6492L21.2283 77.9976C20.9912 80.8433 21.6794 84.9494 24.5087 88.4139C27.4623 92.0306 32.3116 94.4209 39.3411 94.4209V86.5748ZM29.0306 78.81C29.8819 72 37.3006 55.404 56.6654 43.0809L52.453 36.4614C31.3776 49.873 22.4229 68.4143 21.245 77.8368L29.0306 78.81ZM56.6654 43.0809C78.3141 29.3044 91.7776 27.4617 105.286 27.4617V19.6155C90.3872 19.6155 75.4438 21.8309 52.453 36.4614L56.6654 43.0809ZM105.286 27.4617C111.922 27.4617 122.143 28.9007 132.795 32.5737C143.444 36.246 154.236 42.0519 162.291 50.5811L167.996 45.1937C158.804 35.4613 146.769 29.0927 135.352 25.1561C123.938 21.2201 112.854 19.6155 105.286 19.6155V27.4617ZM162.292 50.5814C162.914 51.2405 163.532 51.8916 164.14 52.5338L169.835 47.136C169.225 46.4926 168.612 45.8467 167.995 45.1934L162.292 50.5814ZM164.141 52.5342C171.654 60.4581 177.848 67.0315 182.186 76.0513C186.487 84.9944 189.09 96.6542 188.614 114.743L196.458 114.95C196.956 95.9997 194.244 83.0202 189.257 72.6506C184.307 62.3576 177.239 54.9449 169.834 47.1356L164.141 52.5342ZM188.614 114.743C187.644 151.606 156.519 195.13 106.3 195.13V202.976C161.594 202.976 195.399 155.192 196.458 114.95L188.614 114.743ZM106.3 195.13C62.6227 195.13 39.6825 166.714 31.5923 152.475L24.7704 156.352C33.589 171.872 58.6705 202.976 106.3 202.976V195.13ZM31.4455 152.237C31.4945 152.311 31.2862 151.977 31.2244 151.328C31.1696 150.753 31.235 149.977 31.6902 149.066L24.6724 145.557C22.3334 150.235 23.5729 154.573 24.9171 156.59L31.4455 152.237ZM31.6902 149.066C31.8125 148.822 31.9662 148.502 32.1334 148.154L25.062 144.754C24.8843 145.124 24.7612 145.38 24.6724 145.557L31.6902 149.066ZM32.1332 148.155C35.2179 141.741 49.2263 112.68 80.7436 95.9941L77.0725 89.0597C43.1888 106.998 28.2668 138.091 25.0623 144.754L32.1332 148.155ZM80.7436 95.9941C96.1923 87.8154 107.976 83.8539 117.446 81.9345C126.908 80.0169 134.212 80.1013 140.951 80.1849L141.048 72.3393C134.248 72.255 126.227 72.1492 115.888 74.2447C105.557 76.3384 93.0646 80.5934 77.0725 89.0597L80.7436 95.9941ZM140.951 80.1849C142.261 80.2013 143.567 80.2174 144.853 80.2174V72.3713C143.624 72.3713 142.367 72.3558 141.049 72.3393L140.951 80.1849ZM144.853 80.2174C148.557 80.2174 151.734 79.9561 154.351 79.3579C156.929 78.7686 159.322 77.7722 161.069 76.0248C162.955 74.1398 163.713 71.7597 163.61 69.283C163.514 66.9708 162.679 64.6215 161.551 62.3655L154.533 65.8744C155.434 67.6765 155.74 68.8781 155.771 69.6095C155.794 70.1764 155.665 70.3327 155.521 70.4767C155.24 70.7584 154.462 71.2838 152.602 71.709C150.78 72.1254 148.25 72.3713 144.853 72.3713V80.2174ZM161.551 62.3655C160.524 60.3121 158.361 57.4993 155.457 54.5291C152.485 51.4897 148.535 48.0789 143.732 44.8768C134.135 38.4793 120.961 32.8044 105.286 32.8044V40.6506C119.032 40.6506 130.714 45.6283 139.38 51.4052C143.707 54.2904 147.239 57.3472 149.847 60.0145C152.523 62.7512 154.038 64.8842 154.533 65.8744L161.551 62.3655Z" fill="url(#paint0_linear_101_1573)"/>    <defs>        <linearGradient id="paint0_linear_101_1573" x1="-4.4697" y1="82.0582" x2="93.9979" y2="224.931" gradientUnits="userSpaceOnUse">            <stop stop-color="#F7941D"/>            <stop offset="0.325967" stop-color="#EC7C30"/>            <stop offset="0.685083" stop-color="#DA316A"/>            <stop offset="1" stop-color="#D01A7C"/>        </linearGradient>    </defs></svg>