<svg width="28" height="28" viewBox="0 0 28 28" fill="none" xmlns="http://www.w3.org/2000/svg">
<path d="M14 0.666672C13.6464 0.666672 13.3072 0.807147 13.0572 1.0572C12.8071 1.30724 12.6666 1.64638 12.6666 2.00001V4.66667C12.6666 5.02029 12.8071 5.35943 13.0572 5.60948C13.3072 5.85953 13.6464 6.00001 14 6.00001C14.3536 6.00001 14.6927 5.85953 14.9428 5.60948C15.1928 5.35943 15.3333 5.02029 15.3333 4.66667V2.00001C15.3333 1.64638 15.1928 1.30724 14.9428 1.0572C14.6927 0.807147 14.3536 0.666672 14 0.666672V0.666672ZM26 12.6667H23.3333C22.9797 12.6667 22.6405 12.8071 22.3905 13.0572C22.1404 13.3072 22 13.6464 22 14C22 14.3536 22.1404 14.6928 22.3905 14.9428C22.6405 15.1929 22.9797 15.3333 23.3333 15.3333H26C26.3536 15.3333 26.6927 15.1929 26.9428 14.9428C27.1928 14.6928 27.3333 14.3536 27.3333 14C27.3333 13.6464 27.1928 13.3072 26.9428 13.0572C26.6927 12.8071 26.3536 12.6667 26 12.6667ZM5.99997 14C5.99997 13.6464 5.8595 13.3072 5.60945 13.0572C5.3594 12.8071 5.02026 12.6667 4.66664 12.6667H1.99997C1.64635 12.6667 1.30721 12.8071 1.05717 13.0572C0.807117 13.3072 0.666641 13.6464 0.666641 14C0.666641 14.3536 0.807117 14.6928 1.05717 14.9428C1.30721 15.1929 1.64635 15.3333 1.99997 15.3333H4.66664C5.02026 15.3333 5.3594 15.1929 5.60945 14.9428C5.8595 14.6928 5.99997 14.3536 5.99997 14ZM6.29331 4.66667C6.0334 4.4209 5.6865 4.28845 5.32893 4.29846C4.97136 4.30846 4.63241 4.46009 4.38664 4.72001C4.14087 4.97992 4.00842 5.32681 4.01842 5.68438C4.02843 6.04195 4.18006 6.3809 4.43997 6.62667L6.35997 8.48001C6.48882 8.60442 6.64141 8.7016 6.80864 8.76574C6.97587 8.82988 7.15431 8.85968 7.33331 8.85334C7.51291 8.85265 7.69053 8.81569 7.8555 8.74466C8.02046 8.67363 8.16938 8.57001 8.29331 8.44001C8.54164 8.19019 8.68103 7.85225 8.68103 7.50001C8.68103 7.14776 8.54164 6.80982 8.29331 6.56001L6.29331 4.66667ZM20.6666 8.85334C21.0099 8.85197 21.3395 8.71825 21.5866 8.48001L23.5066 6.62667C23.7409 6.38194 23.8732 6.05723 23.8766 5.7185C23.8801 5.37976 23.7546 5.0524 23.5254 4.8029C23.2963 4.5534 22.9808 4.40046 22.643 4.37516C22.3052 4.34986 21.9704 4.45409 21.7066 4.66667L19.7866 6.56001C19.5383 6.80982 19.3989 7.14776 19.3989 7.50001C19.3989 7.85225 19.5383 8.19019 19.7866 8.44001C20.0175 8.68363 20.3317 8.83123 20.6666 8.85334ZM14 22C13.6464 22 13.3072 22.1405 13.0572 22.3905C12.8071 22.6406 12.6666 22.9797 12.6666 23.3333V26C12.6666 26.3536 12.8071 26.6928 13.0572 26.9428C13.3072 27.1929 13.6464 27.3333 14 27.3333C14.3536 27.3333 14.6927 27.1929 14.9428 26.9428C15.1928 26.6928 15.3333 26.3536 15.3333 26V23.3333C15.3333 22.9797 15.1928 22.6406 14.9428 22.3905C14.6927 22.1405 14.3536 22 14 22ZM21.64 19.52C21.3854 19.2742 21.0436 19.1397 20.6897 19.1459C20.3359 19.1522 19.9991 19.2987 19.7533 19.5533C19.5075 19.8079 19.373 20.1498 19.3792 20.5036C19.3855 20.8574 19.532 21.1942 19.7866 21.44L21.7066 23.3333C21.9538 23.5716 22.2833 23.7053 22.6266 23.7067C22.8053 23.7077 22.9823 23.6728 23.1473 23.6041C23.3122 23.5354 23.4616 23.4343 23.5866 23.3067C23.7116 23.1827 23.8108 23.0353 23.8785 22.8728C23.9462 22.7103 23.981 22.536 23.981 22.36C23.981 22.184 23.9462 22.0097 23.8785 21.8472C23.8108 21.6848 23.7116 21.5373 23.5866 21.4133L21.64 19.52ZM6.35997 19.52L4.43997 21.3733C4.315 21.4973 4.21581 21.6448 4.14812 21.8072C4.08043 21.9697 4.04558 22.144 4.04558 22.32C4.04558 22.496 4.08043 22.6703 4.14812 22.8328C4.21581 22.9953 4.315 23.1427 4.43997 23.2667C4.56503 23.3943 4.71445 23.4954 4.87937 23.5641C5.04428 23.6328 5.22132 23.6677 5.39997 23.6667C5.72866 23.6695 6.0468 23.5508 6.29331 23.3333L8.21331 21.48C8.46792 21.2342 8.61447 20.8974 8.62072 20.5436C8.62697 20.1898 8.49241 19.8479 8.24664 19.5933C8.00087 19.3387 7.66403 19.1922 7.31021 19.1859C6.95639 19.1797 6.61458 19.3142 6.35997 19.56V19.52Z" fill="#C8C8C8"/>
</svg>
